<!--?xml version="1.0" encoding="utf-8"?-->
<svg viewBox="0 0 440 305" fill="none" xmlns="http://www.w3.org/2000/svg" class="" style="">
  <path class="myHexagon oFOXQgOx_0" d="M293.545 167.405L229.5 204.381C227.025 205.81 223.975 205.81 221.5 204.381L157.455 167.405C154.98 165.976 153.455 163.335 153.455 160.476L153.455 86.5234C153.455 83.6653 154.98 81.0243 157.455 79.5952L221.5 42.6187C223.975 41.1896 227.025 41.1897 229.5 42.6187L293.545 79.5952C296.02 81.0243 297.545 83.6653 297.545 86.5234L297.545 160.476C297.545 163.335 296.02 165.976 293.545 167.405Z" stroke="#1C1339" strokeWidth="4"></path>
  <path class="myHexagon oFOXQgOx_1" d="M147.455 73.5953L211.5 36.6188C213.975 35.1898 217.025 35.1898 219.5 36.6188L283.545 73.5953C286.02 75.0244 287.545 77.6654 287.545 80.5235L287.545 154.477C287.545 157.335 286.02 159.976 283.545 161.405L219.5 198.381C217.025 199.81 213.975 199.81 211.5 198.381L147.455 161.405C144.98 159.976 143.455 157.335 143.455 154.477L143.455 80.5235C143.455 77.6654 144.98 75.0244 147.455 73.5953Z" stroke="#1C1339" strokeWidth="4"></path>
  <path d="M 202.63 87.676 Q 202.63 87.676 202.975 87.124 Q 203.32 86.572 204.631 86.158 Q 205.942 85.744 207.909 85.744 Q 209.875 85.744 211.048 86.089 Q 212.221 86.434 212.842 86.917 Q 213.463 87.4 213.739 88.366 Q 214.153 89.539 214.153 91.954 L 214.153 112.792 Q 214.153 121.9 208.495 129.352 Q 205.735 132.871 201.388 135.044 Q 197.041 137.218 191.763 137.218 Q 186.484 137.218 182.172 135.01 Q 177.859 132.802 175.168 129.214 Q 169.579 121.9 169.579 112.654 L 169.579 91.885 Q 169.579 90.229 169.683 89.435 Q 169.786 88.642 170.338 87.607 Q 170.89 86.572 172.201 86.158 Q 173.512 85.744 175.72 85.744 Q 177.928 85.744 179.239 86.158 Q 180.55 86.572 181.033 87.607 Q 181.861 89.194 181.861 91.954 L 181.861 112.654 Q 181.861 116.863 183.931 120.658 Q 184.966 122.59 187.036 123.763 Q 189.106 124.936 191.935 124.936 Q 196.972 124.936 199.456 121.21 Q 201.94 117.484 201.94 112.585 L 201.94 91.471 Q 201.94 88.78 202.63 87.676 Z" style="stroke: #1C1339; strokeWidth: 4px; white-space: pre;" class="oFOXQgOx_2"></path>
  <path d="M 244.786 117.673 Q 244.786 117.673 246.132 117.673 Q 247.477 117.673 248.754 118.122 Q 250.03 118.57 250.582 119.605 Q 251.341 121.192 251.341 123.883 L 251.341 150.586 Q 251.341 157.831 246.097 163.386 Q 240.853 168.94 232.711 168.94 Q 228.157 168.94 224.638 166.939 Q 221.464 165.214 220.222 163.834 L 219.67 163.282 Q 217.255 160.729 217.255 158.901 Q 217.255 157.072 219.67 154.588 Q 222.085 152.104 223.948 152.104 Q 225.811 152.104 228.088 154.381 Q 230.365 156.658 233.022 156.658 Q 235.678 156.658 237.403 154.864 Q 239.128 153.07 239.128 150.103 L 239.128 124.297 Q 239.128 120.157 240.508 118.984 Q 242.095 117.673 244.786 117.673 Z" style="stroke: #1C1339; strokeWidth: 5px; white-space: pre;" class="oFOXQgOx_3"></path>
  <path d="M 117.713 282.292 Q 117.513 282.292 117.213 282.242 Q 116.913 282.192 116.513 282.092 Q 107.513 280.092 107.513 267.592 Q 107.513 259.792 111.013 248.392 Q 106.913 254.092 103.713 258.192 Q 100.513 262.292 98.213 264.892 Q 88.513 275.692 82.013 275.692 Q 78.913 275.692 77.313 274.092 Q 75.313 272.292 75.313 269.092 Q 75.313 262.692 82.313 252.892 Q 83.113 251.792 84.263 250.192 Q 85.413 248.592 86.813 246.392 Q 92.713 237.192 92.713 231.692 Q 92.713 228.792 91.013 227.092 Q 90.313 234.992 83.513 245.192 L 76.313 256.192 Q 74.013 259.792 72.963 262.842 Q 71.913 265.892 71.913 268.192 Q 71.913 272.992 75.213 273.592 Q 75.413 273.792 75.413 273.892 Q 75.413 274.492 75.013 274.292 Q 70.813 273.492 70.813 268.192 Q 70.813 263.592 75.213 255.892 L 82.313 244.892 Q 85.813 239.592 87.563 234.892 Q 89.313 230.192 89.513 226.192 Q 88.213 225.592 86.213 225.592 Q 79.413 225.592 70.513 232.092 Q 65.413 235.792 61.713 240.492 Q 64.213 243.592 68.813 243.592 Q 70.413 243.592 72.213 243.092 Q 72.513 242.892 72.713 243.392 Q 72.813 243.692 72.413 243.792 Q 70.613 244.392 68.813 244.392 Q 64.213 244.392 61.213 241.192 Q 56.713 246.992 56.713 251.692 Q 56.713 256.092 60.813 258.492 Q 61.813 259.092 61.813 259.492 Q 61.813 259.892 61.313 259.892 Q 60.813 259.892 60.013 259.392 Q 54.613 254.992 54.613 249.392 Q 54.613 244.192 59.313 238.392 Q 58.413 236.292 58.413 233.892 Q 58.413 227.592 63.813 221.492 Q 66.913 217.892 71.713 215.642 Q 76.513 213.392 80.913 213.392 Q 85.213 213.392 88.013 215.692 Q 89.413 216.992 90.263 218.942 Q 91.113 220.892 91.113 223.492 L 91.113 225.392 Q 96.213 227.792 96.213 233.992 Q 96.213 240.592 90.213 248.892 Q 89.513 249.692 88.413 251.142 Q 87.313 252.592 85.913 254.592 Q 78.713 264.192 78.713 269.692 Q 78.713 273.792 82.613 273.792 Q 87.213 273.792 93.713 267.292 Q 96.113 264.892 98.913 261.492 Q 101.713 258.092 104.813 253.692 L 112.913 242.092 Q 113.413 240.392 114.013 238.742 Q 114.613 237.092 115.213 235.492 Q 116.913 230.992 118.813 228.092 Q 123.813 220.292 127.213 220.292 Q 128.613 220.292 128.613 222.292 Q 128.613 225.492 124.813 231.992 Q 122.713 235.492 116.513 243.592 Q 110.713 258.892 110.713 268.292 Q 110.713 278.292 117.113 280.792 Q 118.713 281.392 118.713 281.792 Q 118.713 282.292 117.713 282.292 Z M 60.013 237.592 Q 63.713 233.292 68.813 230.092 Q 77.913 224.192 85.313 224.192 Q 87.713 224.192 89.613 224.792 Q 89.813 214.392 80.713 214.392 Q 76.813 214.392 72.513 216.542 Q 68.213 218.692 65.013 222.292 Q 59.513 228.492 59.513 234.392 Q 59.513 235.892 60.013 237.592 Z" style="stroke: #1C1339; strokeWidth: 2px; white-space: pre;" class="oFOXQgOx_4"></path>
  <path d="M 132.01 271.392 Q 131.11 271.092 131.21 270.092 L 131.41 268.092 L 131.71 264.592 Q 132.01 259.492 130.51 259.492 Q 129.41 259.492 126.81 262.092 Q 126.01 262.992 125.06 264.342 Q 124.11 265.692 123.01 267.592 Q 121.01 270.992 120.81 271.092 Q 120.61 271.192 120.41 271.242 Q 120.21 271.292 120.01 271.292 Q 119.11 271.292 119.11 270.092 Q 119.11 269.592 119.21 269.492 L 122.21 262.592 Q 124.81 256.492 124.81 255.192 Q 125.11 254.792 126.81 253.992 Q 127.21 253.792 127.51 253.692 Q 127.81 253.592 128.11 253.592 Q 128.81 253.592 128.81 254.492 L 126.81 260.592 Q 127.81 259.592 129.61 258.092 Q 130.61 257.392 131.81 257.392 Q 134.71 257.392 135.11 261.092 L 134.81 267.492 Q 136.71 264.592 142.51 256.792 Q 143.61 255.292 145.01 255.292 Q 145.71 255.292 145.71 256.092 L 145.61 256.892 Q 144.01 261.992 144.01 265.192 Q 144.01 269.192 146.81 269.192 Q 148.91 269.192 151.81 266.892 Q 152.31 266.492 153.36 265.492 Q 154.41 264.492 155.91 262.892 Q 156.31 262.492 156.61 262.492 Q 157.01 262.492 157.01 262.892 Q 157.11 263.092 156.81 263.592 Q 150.11 271.092 145.21 271.092 Q 140.21 271.092 140.61 261.492 Q 140.21 261.892 139.51 262.692 Q 138.81 263.492 137.81 264.692 L 134.11 270.392 Q 132.81 271.792 132.01 271.392 Z" style="stroke: #1C1339; strokeWidth: 2px; white-space: pre;" class="oFOXQgOx_5"></path>
  <path d="M 156.404 271.092 Q 154.104 271.092 154.104 268.092 Q 154.104 265.692 155.904 262.892 Q 160.104 256.592 165.004 254.392 Q 167.104 253.392 169.104 253.392 Q 170.104 253.392 171.304 253.942 Q 172.504 254.492 172.504 255.492 Q 172.504 255.992 171.804 256.092 Q 171.404 256.192 171.254 256.292 Q 171.104 256.392 171.004 256.492 Q 168.704 260.792 168.704 264.492 Q 168.704 269.192 172.404 269.192 Q 176.304 269.192 182.104 263.092 Q 182.604 262.492 182.904 262.492 Q 183.204 262.492 183.204 262.892 Q 183.204 263.292 182.904 263.792 Q 176.204 270.992 171.204 270.992 Q 168.804 270.992 167.304 268.892 Q 165.704 266.692 165.604 263.592 Q 163.104 266.892 160.604 269.092 Q 158.004 271.092 156.404 271.092 Z M 158.504 268.092 Q 159.604 268.092 161.404 266.592 Q 163.004 265.192 164.104 263.842 Q 165.204 262.492 165.704 261.092 Q 165.904 259.392 166.354 258.042 Q 166.804 256.692 167.304 255.592 Q 162.104 255.492 158.404 262.792 Q 157.304 264.792 157.304 266.392 Q 157.304 268.092 158.504 268.092 Z" style="stroke: #1C1339; strokeWidth: 2px; white-space: pre;" class="oFOXQgOx_6"></path>
  <path d="M 194.71 245.992 Q 193.81 245.992 193.06 245.242 Q 192.31 244.492 192.31 243.592 Q 192.31 242.392 193.41 241.592 Q 194.21 240.892 195.21 240.892 Q 197.51 240.892 197.51 242.892 Q 197.51 245.992 194.71 245.992 Z M 188.01 270.992 Q 182.21 270.892 182.81 262.992 Q 182.91 259.592 186.51 254.292 Q 187.11 253.192 189.11 253.192 Q 190.61 253.192 190.61 254.092 L 190.51 254.592 L 188.01 258.892 Q 186.51 261.692 186.41 263.192 Q 186.31 263.692 186.26 264.242 Q 186.21 264.792 186.21 265.292 Q 186.21 269.392 189.11 269.392 Q 193.11 269.392 199.11 263.092 Q 199.71 262.392 200.11 262.392 Q 200.41 262.492 200.41 262.892 Q 200.41 263.192 200.11 263.692 Q 193.11 271.192 188.01 270.992 Z" style="stroke: #1C1339; strokeWidth: 2px; white-space: pre;" class="oFOXQgOx_7"></path>
  <path d="M 213.004 272.592 Q 208.504 272.592 208.504 267.692 Q 208.504 264.292 211.404 258.992 Q 209.904 259.192 208.554 257.992 Q 207.204 256.792 207.204 255.192 Q 204.604 260.092 199.404 264.392 Q 199.004 264.792 198.404 264.792 Q 198.004 264.792 198.004 264.492 Q 198.004 264.092 198.604 263.692 Q 203.104 259.592 206.304 253.592 L 206.104 252.592 Q 206.004 252.092 205.954 251.642 Q 205.904 251.192 205.904 250.792 Q 205.904 248.392 207.204 246.992 Q 208.404 245.692 209.904 245.692 Q 211.804 245.692 211.804 247.692 Q 211.804 250.192 208.504 254.092 L 208.504 254.292 Q 208.504 255.992 210.504 255.992 Q 211.304 255.992 212.404 255.592 Q 213.604 255.292 214.104 255.292 Q 215.904 255.292 215.904 257.192 Q 215.904 257.892 215.404 258.692 Q 214.704 259.692 213.604 262.292 Q 212.304 265.092 212.104 266.392 Q 212.004 266.792 211.954 267.192 Q 211.904 267.592 211.904 267.992 Q 211.904 270.592 214.304 270.592 Q 217.304 270.592 221.904 267.892 Q 223.904 266.792 225.504 265.592 Q 227.104 264.392 228.404 263.092 Q 229.004 262.492 229.404 262.492 Q 229.704 262.492 229.704 262.892 Q 229.704 263.392 229.104 263.992 Q 222.104 269.992 217.304 271.692 Q 214.804 272.592 213.004 272.592 Z" style="stroke: #1C1339; strokeWidth: 2px; white-space: pre;" class="oFOXQgOx_8"></path>
  <path d="M 261.297 289.592 Q 256.997 289.592 254.497 287.542 Q 251.997 285.492 251.997 282.192 Q 251.997 274.792 262.497 267.892 Q 270.097 262.992 282.197 258.892 Q 282.397 258.792 282.697 258.792 Q 282.997 258.792 283.197 258.792 Q 283.797 258.792 283.797 259.092 Q 283.797 259.292 282.597 259.792 Q 272.097 263.292 265.097 268.192 Q 255.797 274.792 255.797 281.692 Q 255.797 284.492 257.847 286.142 Q 259.897 287.792 263.297 287.792 Q 271.497 287.792 280.497 280.292 Q 291.397 271.092 297.197 255.092 Q 299.597 248.592 301.197 241.842 Q 302.797 235.092 303.597 228.092 Q 302.197 228.092 300.747 228.192 Q 299.297 228.292 297.697 228.492 Q 297.897 229.792 298.047 231.242 Q 298.197 232.692 298.197 234.292 Q 298.197 243.892 293.997 255.192 Q 291.797 260.992 288.997 265.892 Q 286.197 270.792 282.697 274.592 Q 274.797 283.392 265.697 284.392 Q 265.397 284.392 265.297 284.292 L 265.297 283.892 L 265.697 283.592 Q 275.297 282.192 283.197 271.892 Q 290.397 262.592 294.097 249.792 Q 295.497 245.392 296.097 241.442 Q 296.697 237.492 296.697 233.992 Q 296.697 232.592 296.597 231.292 Q 296.497 229.992 296.297 228.692 Q 284.597 230.392 277.797 234.192 Q 277.797 239.092 279.997 242.892 Q 282.397 247.192 287.197 249.192 Q 287.497 249.292 287.497 249.492 Q 287.497 249.792 287.297 249.892 Q 287.097 249.992 286.897 249.892 Q 282.097 247.992 279.197 243.692 Q 276.497 239.992 276.197 235.192 Q 272.397 237.892 272.397 240.892 Q 272.397 243.392 273.897 244.392 Q 274.297 244.692 274.297 244.892 Q 274.297 245.692 273.197 245.092 Q 270.797 243.592 270.797 240.492 Q 270.797 236.292 276.297 232.592 L 276.297 232.192 Q 276.297 228.592 278.097 225.542 Q 279.897 222.492 282.647 220.642 Q 285.397 218.792 288.297 218.792 Q 294.497 218.792 296.897 225.692 Q 300.697 225.192 303.797 225.392 Q 303.897 224.292 303.947 223.292 Q 303.997 222.292 303.997 221.392 Q 303.997 220.892 304.897 220.242 Q 305.797 219.592 306.597 219.592 Q 307.497 219.592 307.697 220.692 Q 307.697 222.692 307.397 225.692 Q 313.497 226.592 314.997 229.692 Q 315.097 229.792 315.097 230.092 Q 315.097 230.592 314.597 230.592 Q 314.097 230.592 313.997 230.192 Q 313.097 228.392 307.197 228.092 Q 305.697 243.092 300.997 255.692 Q 295.997 269.392 285.897 278.592 Q 283.297 280.992 280.397 282.942 Q 277.497 284.892 274.297 286.292 Q 267.597 289.592 261.297 289.592 Z M 278.097 231.392 Q 281.197 229.592 284.697 228.292 Q 288.197 226.992 291.997 226.392 L 295.697 225.792 Q 293.597 219.592 288.297 219.592 Q 284.997 219.592 282.097 222.592 Q 278.997 225.992 278.097 231.392 Z" style="stroke: #1C1339; strokeWidth: 2px; white-space: pre;" class="oFOXQgOx_9"></path>
  <path d="M 317.007 245.992 Q 316.107 245.992 315.357 245.242 Q 314.607 244.492 314.607 243.592 Q 314.607 242.392 315.707 241.592 Q 316.507 240.892 317.507 240.892 Q 319.807 240.892 319.807 242.892 Q 319.807 245.992 317.007 245.992 Z M 310.307 270.992 Q 304.507 270.892 305.107 262.992 Q 305.207 259.592 308.807 254.292 Q 309.407 253.192 311.407 253.192 Q 312.907 253.192 312.907 254.092 L 312.807 254.592 L 310.307 258.892 Q 308.807 261.692 308.707 263.192 Q 308.607 263.692 308.557 264.242 Q 308.507 264.792 308.507 265.292 Q 308.507 269.392 311.407 269.392 Q 315.407 269.392 321.407 263.092 Q 322.007 262.392 322.407 262.392 Q 322.707 262.492 322.707 262.892 Q 322.707 263.192 322.407 263.692 Q 315.407 271.192 310.307 270.992 Z" style="stroke: #1C1339; strokeWidth: 2px; white-space: pre;" class="oFOXQgOx_10"></path>
  <path d="M 328.2 273.392 Q 323.4 273.392 323.4 268.392 Q 323.4 266.792 324 264.592 Q 320.5 260.592 320.5 255.992 Q 320.5 252.592 322.4 250.692 Q 324.4 248.392 328 248.392 Q 329.4 248.392 330.9 248.692 Q 334.8 241.492 338.05 236.642 Q 341.3 231.792 343.9 229.292 Q 344.5 228.692 345.7 228.692 Q 348 228.692 348 229.792 Q 348 230.092 347.7 230.392 Q 342.6 235.192 334 249.592 Q 340.5 252.592 340.5 259.392 Q 340.5 263.492 337.3 267.892 Q 342.5 267.092 346.5 262.792 Q 347 262.492 347.2 262.492 Q 347.5 262.492 347.5 262.892 Q 347.5 263.392 346.9 263.892 Q 341.6 268.592 336.2 269.392 Q 332.5 273.392 328.2 273.392 Z M 324.8 261.892 Q 325.5 259.792 326.75 257.092 Q 328 254.392 329.7 251.192 L 330.3 249.992 Q 326.8 249.692 324.9 251.592 Q 323.2 253.292 323.2 256.192 Q 323.2 259.092 324.8 261.892 Z M 333.8 267.992 Q 335 266.492 335.5 265.292 Q 337.6 261.092 337.6 257.592 Q 337.6 252.092 333.5 250.692 Q 332.2 252.892 331 255.242 Q 329.8 257.592 328.7 259.892 Q 327.5 262.492 326.9 264.492 Q 330 267.392 333.8 267.992 Z M 328 272.092 Q 330.1 272.092 332.6 269.292 Q 329.4 268.892 326.4 266.692 Q 326.1 267.992 326.1 268.992 Q 326.1 272.092 328 272.092 Z" style="stroke: #1C1339; strokeWidth: 2px; white-space: pre;" class="oFOXQgOx_11"></path>
  <path d="M 360.097 272.592 Q 355.597 272.592 355.597 267.692 Q 355.597 264.292 358.497 258.992 Q 356.997 259.192 355.647 257.992 Q 354.297 256.792 354.297 255.192 Q 351.697 260.092 346.497 264.392 Q 346.097 264.792 345.497 264.792 Q 345.097 264.792 345.097 264.492 Q 345.097 264.092 345.697 263.692 Q 350.197 259.592 353.397 253.592 L 353.197 252.592 Q 353.097 252.092 353.047 251.642 Q 352.997 251.192 352.997 250.792 Q 352.997 248.392 354.297 246.992 Q 355.497 245.692 356.997 245.692 Q 358.897 245.692 358.897 247.692 Q 358.897 250.192 355.597 254.092 L 355.597 254.292 Q 355.597 255.992 357.597 255.992 Q 358.397 255.992 359.497 255.592 Q 360.697 255.292 361.197 255.292 Q 362.997 255.292 362.997 257.192 Q 362.997 257.892 362.497 258.692 Q 361.797 259.692 360.697 262.292 Q 359.397 265.092 359.197 266.392 Q 359.097 266.792 359.047 267.192 Q 358.997 267.592 358.997 267.992 Q 358.997 270.592 361.397 270.592 Q 364.397 270.592 368.997 267.892 Q 370.997 266.792 372.597 265.592 Q 374.197 264.392 375.497 263.092 Q 376.097 262.492 376.497 262.492 Q 376.797 262.492 376.797 262.892 Q 376.797 263.392 376.197 263.992 Q 369.197 269.992 364.397 271.692 Q 361.897 272.592 360.097 272.592 Z" style="stroke: #1C1339; strokeWidth: 2px; white-space: pre;" class="oFOXQgOx_12"></path>
  <path d="M 376.31 271.092 Q 374.01 271.092 374.01 268.092 Q 374.01 265.692 375.81 262.892 Q 380.01 256.592 384.91 254.392 Q 387.01 253.392 389.01 253.392 Q 390.01 253.392 391.21 253.942 Q 392.41 254.492 392.41 255.492 Q 392.41 255.992 391.71 256.092 Q 391.31 256.192 391.16 256.292 Q 391.01 256.392 390.91 256.492 Q 388.61 260.792 388.61 264.492 Q 388.61 269.192 392.31 269.192 Q 396.21 269.192 402.01 263.092 Q 402.51 262.492 402.81 262.492 Q 403.11 262.492 403.11 262.892 Q 403.11 263.292 402.81 263.792 Q 396.11 270.992 391.11 270.992 Q 388.71 270.992 387.21 268.892 Q 385.61 266.692 385.51 263.592 Q 383.01 266.892 380.51 269.092 Q 377.91 271.092 376.31 271.092 Z M 378.41 268.092 Q 379.51 268.092 381.31 266.592 Q 382.91 265.192 384.01 263.842 Q 385.11 262.492 385.61 261.092 Q 385.81 259.392 386.26 258.042 Q 386.71 256.692 387.21 255.592 Q 382.01 255.492 378.31 262.792 Q 377.21 264.792 377.21 266.392 Q 377.21 268.092 378.41 268.092 Z" style="stroke: #1C1339; strokeWidth: 2px; white-space: pre;" class="oFOXQgOx_13"></path>
  <path d="M 401.2 271.092 Q 400.5 271.092 400 270.492 Q 399.5 269.892 399.6 269.492 L 402.6 262.592 Q 405.2 256.492 405.2 255.192 Q 405.5 254.792 407.2 253.992 Q 407.6 253.792 407.9 253.692 Q 408.2 253.592 408.5 253.592 Q 409.2 253.592 409.2 254.492 Q 408.5 256.492 407.15 259.642 Q 405.8 262.792 403.7 267.192 L 414.4 255.692 Q 415.8 254.192 416.5 254.192 Q 417 254.192 417 254.792 Q 417 254.992 416.95 255.242 Q 416.9 255.492 416.8 255.792 Q 414.7 263.092 414.7 265.792 Q 414.7 269.192 417 269.192 Q 419.1 269.192 422 266.892 Q 422.5 266.492 423.55 265.492 Q 424.6 264.492 426.1 262.892 Q 426.5 262.492 426.9 262.492 Q 427.2 262.492 427.2 262.892 Q 427.3 263.092 427 263.592 Q 420.7 270.592 415.8 270.592 Q 411.4 270.592 411.4 263.692 Q 411.4 262.892 411.45 262.092 Q 411.5 261.292 411.6 260.392 L 406.9 264.892 Q 406.1 265.592 405.35 266.392 Q 404.6 267.192 404 267.992 L 402 270.492 Q 401.7 271.092 401.2 271.092 Z" style="stroke: #1C1339; strokeWidth: 2px; white-space: pre;" class="oFOXQgOx_14"></path>
<style data-made-with="vivus-instant">.oFOXQgOx_0{stroke-dasharray:494 496;stroke-dashoffset:495;animation:oFOXQgOx_draw 3000ms linear 0ms forwards;}.oFOXQgOx_1{stroke-dasharray:494 496;stroke-dashoffset:495;animation:oFOXQgOx_draw 3000ms linear 0ms forwards;}.oFOXQgOx_2{stroke-dasharray:235 237;stroke-dashoffset:236;animation:oFOXQgOx_draw 3000ms linear 0ms forwards;}.oFOXQgOx_3{stroke-dasharray:153 155;stroke-dashoffset:154;animation:oFOXQgOx_draw 3000ms linear 0ms forwards;}.oFOXQgOx_4{stroke-dasharray:694 696;stroke-dashoffset:695;animation:oFOXQgOx_draw 3000ms linear 0ms forwards;}.oFOXQgOx_5{stroke-dasharray:162 164;stroke-dashoffset:163;animation:oFOXQgOx_draw 3000ms linear 0ms forwards;}.oFOXQgOx_6{stroke-dasharray:134 136;stroke-dashoffset:135;animation:oFOXQgOx_draw 3000ms linear 0ms forwards;}.oFOXQgOx_7{stroke-dasharray:90 92;stroke-dashoffset:91;animation:oFOXQgOx_draw 3000ms linear 0ms forwards;}.oFOXQgOx_8{stroke-dasharray:135 137;stroke-dashoffset:136;animation:oFOXQgOx_draw 3000ms linear 0ms forwards;}.oFOXQgOx_9{stroke-dasharray:615 617;stroke-dashoffset:616;animation:oFOXQgOx_draw 3000ms linear 0ms forwards;}.oFOXQgOx_10{stroke-dasharray:90 92;stroke-dashoffset:91;animation:oFOXQgOx_draw 3000ms linear 0ms forwards;}.oFOXQgOx_11{stroke-dasharray:238 240;stroke-dashoffset:239;animation:oFOXQgOx_draw 3000ms linear 0ms forwards;}.oFOXQgOx_12{stroke-dasharray:135 137;stroke-dashoffset:136;animation:oFOXQgOx_draw 3000ms linear 0ms forwards;}.oFOXQgOx_13{stroke-dasharray:134 136;stroke-dashoffset:135;animation:oFOXQgOx_draw 3000ms linear 0ms forwards;}.oFOXQgOx_14{stroke-dasharray:127 129;stroke-dashoffset:128;animation:oFOXQgOx_draw 3000ms linear 0ms forwards;}@keyframes oFOXQgOx_draw{100%{stroke-dashoffset:0;}}@keyframes oFOXQgOx_fade{0%{stroke-opacity:1;}94.44444444444444%{stroke-opacity:1;}100%{stroke-opacity:0;}}</style></svg>