<?xml version="1.0" encoding="iso-8859-1"?>
<!-- Generator: Adobe Illustrator 19.0.0, SVG Export Plug-In . SVG Version: 6.00 Build 0)  -->
<svg version="1.1" id="Layer_1" xmlns="http://www.w3.org/2000/svg" xmlns:xlink="http://www.w3.org/1999/xlink" x="0px" y="0px"
	 viewBox="0 0 512.001 512.001" style="enable-background:new 0 0 512.001 512.001;" xml:space="preserve">
<polygon style="fill:#94C8EF;" points="342.54,150.362 321.238,324.338 342.54,498.314 498.315,498.314 498.315,150.362 "/>
<polygon style="fill:#7AB6DE;" points="278.633,150.362 310.586,498.314 342.54,498.314 342.54,150.362 "/>
<polygon style="fill:#94C8EF;" points="166.397,13.687 17.948,57.211 17.948,97.489 314.847,97.489 314.847,57.211 "/>
<polygon style="fill:#ADD9FF;" points="162.137,53.964 13.688,97.489 13.688,498.314 108.881,498.314 162.137,477.012 
	215.393,498.314 310.586,498.314 310.586,97.489 "/>
<rect x="108.876" y="330.91" style="fill:#BF7447;" width="106.512" height="167.404"/>
<path style="fill:#FFFFFF;" d="M130.932,84.434c-24.729,0-48.132,15.215-65.189,15.215V246.87c17.057,0,40.461-15.215,65.189-15.215
	c29.144,0,36.529,24.047,36.529,24.047l21.302-73.611l-21.302-73.611C167.463,108.48,160.077,84.434,130.932,84.434z"/>
<path style="fill:#E4F2FF;" d="M203.992,84.434c-29.144,0-36.53,24.047-36.53,24.047v147.221c0,0,7.386-24.047,36.53-24.047
	c24.728,0,48.132,15.215,65.188,15.215V99.649C252.124,99.649,228.721,84.434,203.992,84.434z"/>
<g>
	<path style="fill:#1D2328;" d="M378.859,446.435c4.412,0,7.988-3.577,7.988-7.988v-36.16c0-4.412-3.577-7.988-7.988-7.988
		c-4.413,0-7.988,3.577-7.988,7.988v36.16C370.871,442.858,374.448,446.435,378.859,446.435z"/>
	<path style="fill:#1D2328;" d="M441.435,446.435c4.412,0,7.988-3.577,7.988-7.988v-36.16c0-4.412-3.577-7.988-7.988-7.988
		c-4.413,0-7.988,3.577-7.988,7.988v36.16C433.446,442.858,437.023,446.435,441.435,446.435z"/>
	<path style="fill:#1D2328;" d="M378.859,350.406c4.412,0,7.988-3.577,7.988-7.988v-36.16c0-4.412-3.577-7.988-7.988-7.988
		c-4.413,0-7.988,3.577-7.988,7.988v36.16C370.871,346.829,374.448,350.406,378.859,350.406z"/>
	<path style="fill:#1D2328;" d="M441.435,350.406c4.412,0,7.988-3.577,7.988-7.988v-36.16c0-4.412-3.577-7.988-7.988-7.988
		c-4.413,0-7.988,3.577-7.988,7.988v36.16C433.446,346.829,437.023,350.406,441.435,350.406z"/>
	<path style="fill:#1D2328;" d="M378.859,254.378c4.412,0,7.988-3.577,7.988-7.988v-36.16c0-4.412-3.577-7.988-7.988-7.988
		c-4.413,0-7.988,3.577-7.988,7.988v36.16C370.871,250.802,374.448,254.378,378.859,254.378z"/>
	<path style="fill:#1D2328;" d="M441.435,254.378c4.412,0,7.988-3.577,7.988-7.988v-36.16c0-4.412-3.577-7.988-7.988-7.988
		c-4.413,0-7.988,3.577-7.988,7.988v36.16C433.446,250.802,437.023,254.378,441.435,254.378z"/>
	<path style="fill:#1D2328;" d="M504.011,142.374h-179.74V67.878l1.158,0.34c0.751,0.22,1.507,0.325,2.251,0.325
		c3.455,0,6.641-2.26,7.662-5.743c1.241-4.234-1.184-8.672-5.418-9.914l-11.257-3.301c-0.009-0.003-0.017-0.005-0.026-0.007
		L170.082,6.02c-1.469-0.429-3.027-0.429-4.496,0L17.026,49.577c-0.009,0.002-0.017,0.004-0.026,0.007L5.743,52.885
		c-4.234,1.242-6.659,5.68-5.418,9.914c1.242,4.234,5.679,6.658,9.914,5.418l1.158-0.34v430.437c0,4.412,3.576,7.988,7.988,7.988
		h484.628c4.413,0,7.988-3.577,7.988-7.988V150.362C512,145.951,508.424,142.374,504.011,142.374z M213.101,490.326h-90.535V338.894
		h90.535V490.326z M496.023,490.326H324.271v-23.965c0-4.412-3.576-7.988-7.988-7.988s-7.988,3.577-7.988,7.988v23.965h-79.217
		v-159.42c0-4.412-3.576-7.988-7.988-7.988H114.577c-4.413,0-7.988,3.577-7.988,7.988v159.42H27.372V63.193l140.461-41.183
		l140.461,41.183v371.214c0,4.412,3.576,7.988,7.988,7.988s7.988-3.577,7.988-7.988V158.351h171.752L496.023,490.326
		L496.023,490.326z"/>
	<path style="fill:#1D2328;" d="M269.552,91.771c-6.395,0-14.972-2.971-24.052-6.115c-12.319-4.266-26.283-9.1-41.136-9.1
		c-17.668,0-29.474,7.888-36.53,16.269c-7.056-8.38-18.862-16.269-36.53-16.269c-14.852,0-28.816,4.836-41.135,9.1
		c-9.081,3.144-17.659,6.115-24.054,6.115c-4.413,0-7.988,3.577-7.988,7.988v147.221c0,4.412,3.576,7.988,7.988,7.988
		c9.082,0,18.893-3.397,29.28-6.994c11.674-4.042,23.744-8.222,35.908-8.222c6.337,0,11.918,1.355,16.582,4.028
		c3.828,2.193,8.709,0.867,10.903-2.961s0.867-8.709-2.96-10.903c-7.115-4.075-15.365-6.141-24.524-6.141
		c-14.852,0-28.816,4.835-41.135,9.1c-5.691,1.97-11.184,3.873-16.065,5.018v-130.91c6.768-1.201,13.884-3.666,21.292-6.232
		c11.674-4.042,23.744-8.222,35.908-8.222c19.91,0,26.98,13.726,28.542,17.481v99.223c0,4.412,3.576,7.988,7.988,7.988
		s7.988-3.577,7.988-7.988v-99.211c1.604-3.848,8.692-17.492,28.542-17.492c12.166,0,24.236,4.18,35.908,8.222
		c7.409,2.566,14.525,5.029,21.292,6.232v130.91c-4.881-1.145-10.374-3.047-16.064-5.018c-12.319-4.266-26.283-9.1-41.136-9.1
		c-9.159,0-17.409,2.066-24.523,6.14c-3.829,2.193-5.154,7.074-2.961,10.903c2.192,3.828,7.071,5.153,10.901,2.962
		c4.666-2.672,10.245-4.028,16.583-4.028c12.166,0,24.236,4.18,35.908,8.222c10.387,3.597,20.198,6.994,29.28,6.994
		c4.412,0,7.988-3.577,7.988-7.988V99.76C277.54,95.348,273.965,91.771,269.552,91.771z"/>
</g>
<g>
</g>
<g>
</g>
<g>
</g>
<g>
</g>
<g>
</g>
<g>
</g>
<g>
</g>
<g>
</g>
<g>
</g>
<g>
</g>
<g>
</g>
<g>
</g>
<g>
</g>
<g>
</g>
<g>
</g>
</svg>
